# Blender v3.0.0 OBJ File: 'Raumstation.blend'
# www.blender.org
mtllib Comunication_Floor.mtl
o Floor_Cylinder.022
v 1.216843 0.500000 -2.603637
v -2.092693 0.500000 -3.352976
v 1.344873 0.500000 -2.377345
v 2.522377 0.500000 -3.342272
v -2.228542 0.500000 -3.131290
v 2.650407 0.500000 -3.115979
v -0.813732 0.500000 -2.569229
v -0.949582 0.500000 -2.347542
v 0.157061 0.500000 -5.997944
v 1.400672 0.500000 -5.834220
v 2.583066 0.500000 -5.415512
v 3.652568 0.500000 -4.760120
v 4.562436 0.500000 -3.896688
v -4.352246 0.500000 -4.130128
v -3.398438 0.500000 -4.944757
v -2.296100 0.500000 -5.543278
v -1.093414 0.500000 -5.899529
v 0.105095 0.500000 -1.404324
v -2.362213 0.500000 -2.913160
v -1.082529 0.500000 -2.130593
v 1.465126 0.500000 -2.164798
v 2.774370 0.500000 -2.896875
v 1.707494 0.500000 2.311731
v 3.945200 0.500000 -0.239192
v 1.447533 0.500000 2.316268
v 1.733672 0.500000 3.811502
v 3.815200 0.500000 -0.464359
v 1.473712 0.500000 3.816040
v 2.646162 0.500000 0.510808
v 2.516162 0.500000 0.285641
v 5.196153 0.500000 2.999999
v 4.458869 0.500000 4.014783
v 3.526712 0.500000 4.854101
v 2.440421 0.500000 5.481272
v 1.247470 0.500000 5.868885
v 5.706339 0.500000 -1.854102
v 5.967131 0.500000 -0.627172
v 5.967132 0.500000 0.627171
v 5.706339 0.500000 1.854101
v 1.183997 0.500000 0.762444
v 3.687285 0.500000 -0.685913
v 2.388940 0.500000 0.065286
v 1.203364 0.500000 2.320530
v 1.222008 0.500000 3.820433
v -5.706340 0.500000 1.854103
v -5.196152 0.500000 3.000000
v -1.505453 0.500000 2.036239
v -1.765453 0.500000 2.036239
v -4.041643 0.500000 -0.631748
v -1.505453 0.500000 3.536239
v -4.167693 0.500000 -0.404347
v -2.729714 0.500000 0.095466
v -1.765453 0.500000 3.536239
v -2.855764 0.500000 0.322868
v -2.855764 0.500000 0.322868
v -1.765453 0.500000 3.536239
v -2.729714 0.500000 0.095466
v -4.167693 0.500000 -0.404347
v -1.505453 0.500000 3.536239
v -4.041643 0.500000 -0.631748
v -1.765453 0.500000 2.036239
v -1.505453 0.500000 2.036239
v -5.196152 0.500000 3.000000
v -5.706340 0.500000 1.854103
v -5.967131 0.500000 0.627172
v -5.967132 0.500000 -0.627170
v -5.706339 0.500000 -1.854102
v -1.247470 0.500000 5.868885
v -2.440419 0.500000 5.481273
v -3.526712 0.500000 4.854102
v -4.458868 0.500000 4.014785
v -1.252294 0.500000 0.644149
v -1.249624 0.500000 3.536239
v -1.251009 0.500000 2.036239
v -2.611320 0.500000 -0.118121
v -3.919596 0.500000 -0.851927
v -5.967131 0.500000 0.627172
v -5.967132 0.500000 -0.627170
v -5.706339 0.500000 -1.854102
v -1.247470 0.500000 5.868885
v -2.440419 0.500000 5.481273
v -3.526712 0.500000 4.854102
v -4.458868 0.500000 4.014785
v -1.252294 0.500000 0.644149
v -1.249624 0.500000 3.536239
v -1.251009 0.500000 2.036239
v -2.611320 0.500000 -0.118121
v -3.919596 0.500000 -0.851927
vt 0.000000 0.000000
vt 0.000000 0.000000
vt 0.000000 0.000000
vt 0.000000 0.000000
vt 0.000000 0.000000
vt 0.000000 0.000000
vt 0.000000 0.000000
vt 0.000000 0.000000
vt 0.000000 0.000000
vt 0.000000 0.000000
vt 0.000000 0.000000
vt 0.000000 0.000000
vt 0.000000 0.000000
vt 0.000000 0.000000
vt 0.000000 0.000000
vt 0.000000 0.000000
vt 0.000000 0.000000
vt 0.000000 0.000000
vt 0.000000 0.000000
vt 0.000000 0.000000
vt 0.000000 0.000000
vt 0.000000 0.000000
vt 0.000000 0.000000
vt 0.000000 0.000000
vt 0.000000 0.000000
vt 0.000000 0.000000
vt 0.000000 0.000000
vt 0.000000 0.000000
vt 0.000000 0.000000
vt 0.000000 0.000000
vt 0.000000 0.000000
vt 0.000000 0.000000
vt 0.000000 0.000000
vt 0.000000 0.000000
vt 0.000000 0.000000
vt 0.000000 0.000000
vt 0.000000 0.000000
vt 0.000000 0.000000
vt 0.000000 0.000000
vt 0.000000 0.000000
vt 0.000000 0.000000
vt 0.000000 0.000000
vt 0.000000 0.000000
vt 0.000000 0.000000
vt 0.000000 0.000000
vt 0.000000 0.000000
vt 0.000000 0.000000
vt 0.000000 0.000000
vt 0.000000 0.000000
vt 0.000000 0.000000
vt 0.000000 0.000000
vt 0.000000 0.000000
vt 0.000000 0.000000
vt 0.000000 0.000000
vt 0.000000 0.000000
vt 0.000000 0.000000
vt 0.000000 0.000000
vt 0.000000 0.000000
vt 0.000000 0.000000
vt 0.000000 0.000000
vt 0.000000 0.000000
vt 0.000000 0.000000
vt 0.000000 0.000000
vt 0.000000 0.000000
vt 0.000000 0.000000
vt 0.000000 0.000000
vt 0.000000 0.000000
vt 0.000000 0.000000
vt 0.000000 0.000000
vt 0.000000 0.000000
vt 0.000000 0.000000
vt 0.000000 0.000000
vt 0.000000 0.000000
vt 0.000000 0.000000
vt 0.000000 0.000000
vt 0.000000 0.000000
vt 0.000000 0.000000
vt 0.000000 0.000000
vt 0.000000 0.000000
vt 0.000000 0.000000
vt 0.000000 0.000000
vt 0.000000 0.000000
vt 0.000000 0.000000
vt 0.000000 0.000000
vt 0.000000 0.000000
vt 0.000000 0.000000
vt 0.000000 0.000000
vt 0.000000 0.000000
vn 0.0000 1.0000 0.0000
usemtl None
s off
f 6/1/1 22/2/1 13/3/1 12/4/1 11/5/1 10/6/1 9/7/1 17/8/1 16/9/1 15/10/1 14/11/1 19/12/1 5/13/1 2/14/1 7/15/1 8/16/1 20/17/1 18/18/1 21/19/1 3/20/1 1/21/1 4/22/1
f 28/23/1 44/24/1 35/25/1 34/26/1 33/27/1 32/28/1 31/29/1 39/30/1 38/31/1 37/32/1 36/33/1 41/34/1 27/35/1 24/36/1 29/37/1 30/38/1 42/39/1 40/40/1 43/41/1 25/42/1 23/43/1 26/44/1
f 49/45/1 88/46/1 79/47/1 78/48/1 77/49/1 45/50/1 46/51/1 83/52/1 82/53/1 81/54/1 80/55/1 85/56/1 50/57/1 53/58/1 48/59/1 47/60/1 86/61/1 84/62/1 87/63/1 52/64/1 54/65/1 51/66/1
f 60/67/1 76/68/1 67/69/1 66/70/1 65/71/1 64/72/1 63/73/1 71/74/1 70/75/1 69/76/1 68/77/1 73/78/1 59/79/1 56/80/1 61/81/1 62/82/1 74/83/1 72/84/1 75/85/1 57/86/1 55/87/1 58/88/1
