# Blender v3.0.0 OBJ File: 'Raumstation.blend'
# www.blender.org
mtllib Raumstation_Boden.mtl
o Räume.001_Cube.006
v 15.447466 0.010000 9.418139
v 13.739867 0.010000 8.376930
v 10.283978 0.010000 14.885273
v 9.147132 0.010000 13.239799
v 12.557669 0.010000 18.176224
v 4.078843 0.010000 21.715170
v 18.862663 0.010000 11.500556
v 15.961429 0.010000 2.067704
v 15.426762 0.010000 -4.605007
v 21.911764 0.010000 2.838177
v 3.709653 0.010000 19.749540
v 2.971275 0.010000 15.818279
v 19.259647 0.010000 -5.749147
v 21.176088 0.010000 -6.321217
v 19.928318 0.010000 2.581353
v 17.155064 0.010000 10.459348
v 11.420823 0.010000 16.530748
v 3.340464 0.010000 17.783909
v 17.343204 0.010000 -5.177077
v 17.944874 0.010000 2.324528
v 15.447466 -0.090000 9.418139
v 13.739867 -0.090000 8.376930
v 10.283978 -0.090000 14.885273
v 9.147132 -0.090000 13.239799
v 12.557669 -0.090000 18.176224
v 4.078843 -0.090000 21.715170
v 18.862663 -0.090000 11.500556
v 15.961429 -0.090000 2.067704
v 15.426762 -0.090000 -4.605007
v 21.911764 -0.090000 2.838177
v 3.709653 -0.090000 19.749540
v 2.971275 -0.090000 15.818279
v 19.259647 -0.090000 -5.749147
v 21.176088 -0.090000 -6.321217
v 19.928318 -0.090000 2.581353
v 17.155064 -0.090000 10.459348
v 11.420823 -0.090000 16.530748
v 3.340464 -0.090000 17.783909
v 17.343204 -0.090000 -5.177077
v 17.944874 -0.090000 2.324528
vt 0.541667 0.750000
vt 0.541667 1.000000
vt 0.625000 1.000000
vt 0.625000 0.750000
vt 0.541667 0.750000
vt 0.541667 1.000000
vt 0.625000 1.000000
vt 0.625000 0.750000
vt 0.541667 0.750000
vt 0.541667 1.000000
vt 0.625000 1.000000
vt 0.625000 0.750000
vt 0.541667 0.750000
vt 0.541667 1.000000
vt 0.625000 1.000000
vt 0.625000 0.750000
vt 0.375000 0.750000
vt 0.375000 1.000000
vt 0.458333 1.000000
vt 0.458333 0.750000
vt 0.375000 0.750000
vt 0.375000 1.000000
vt 0.458333 1.000000
vt 0.458333 0.750000
vt 0.375000 0.750000
vt 0.375000 1.000000
vt 0.458333 1.000000
vt 0.458333 0.750000
vt 0.375000 0.750000
vt 0.375000 1.000000
vt 0.458333 1.000000
vt 0.458333 0.750000
vt 0.541667 0.750000
vt 0.625000 0.750000
vt 0.625000 1.000000
vt 0.541667 1.000000
vt 0.541667 0.750000
vt 0.625000 0.750000
vt 0.625000 1.000000
vt 0.541667 1.000000
vt 0.541667 0.750000
vt 0.625000 0.750000
vt 0.625000 1.000000
vt 0.541667 1.000000
vt 0.541667 0.750000
vt 0.625000 0.750000
vt 0.625000 1.000000
vt 0.541667 1.000000
vt 0.375000 0.750000
vt 0.458333 0.750000
vt 0.458333 1.000000
vt 0.375000 1.000000
vt 0.375000 0.750000
vt 0.458333 0.750000
vt 0.458333 1.000000
vt 0.375000 1.000000
vt 0.375000 0.750000
vt 0.458333 0.750000
vt 0.458333 1.000000
vt 0.375000 1.000000
vt 0.375000 0.750000
vt 0.458333 0.750000
vt 0.458333 1.000000
vt 0.375000 1.000000
vn -0.0000 1.0000 -0.0000
vn 0.0000 -1.0000 0.0000
vn 0.7270 0.0000 0.6866
vn -0.2860 0.0000 -0.9582
vn 0.9968 0.0000 -0.0801
vn -0.9968 0.0000 0.0799
vn 0.9433 0.0000 0.3320
vn -0.9432 0.0000 -0.3321
vn -0.9828 0.0000 0.1846
vn -0.3853 0.0000 -0.9228
vn 0.3852 0.0000 0.9228
vn -0.7270 0.0000 -0.6866
usemtl None
s off
f 3/1/1 1/2/1 2/3/1 4/4/1
f 18/5/1 3/6/1 4/7/1 12/8/1
f 20/9/1 19/10/1 9/11/1 8/12/1
f 1/13/1 20/14/1 8/15/1 2/16/1
f 7/17/1 10/18/1 15/19/1 16/20/1
f 16/20/1 15/19/1 20/14/1 1/13/1
f 10/21/1 14/22/1 13/23/1 15/24/1
f 15/24/1 13/23/1 19/10/1 20/9/1
f 6/25/1 5/26/1 17/27/1 11/28/1
f 11/28/1 17/27/1 3/6/1 18/5/1
f 5/29/1 7/30/1 16/31/1 17/32/1
f 17/32/1 16/31/1 1/2/1 3/1/1
f 23/33/2 24/34/2 22/35/2 21/36/2
f 38/37/2 32/38/2 24/39/2 23/40/2
f 40/41/2 28/42/2 29/43/2 39/44/2
f 21/45/2 22/46/2 28/47/2 40/48/2
f 27/49/2 36/50/2 35/51/2 30/52/2
f 36/50/2 21/45/2 40/48/2 35/51/2
f 30/53/2 35/54/2 33/55/2 34/56/2
f 35/54/2 40/41/2 39/44/2 33/55/2
f 26/57/2 31/58/2 37/59/2 25/60/2
f 31/58/2 38/37/2 23/40/2 37/59/2
f 25/61/2 37/62/2 36/63/2 27/64/2
f 37/62/2 23/33/2 21/36/2 36/63/2
f 7/30/3 5/29/3 25/61/3 27/64/3
f 9/11/4 19/10/4 39/44/4 29/43/4
f 14/22/5 10/21/5 30/53/5 34/56/5
f 8/12/6 9/11/6 29/43/6 28/42/6
f 19/10/4 13/23/4 33/55/4 39/44/4
f 10/18/7 7/17/7 27/49/7 30/52/7
f 2/16/8 8/15/8 28/47/8 22/46/8
f 6/25/9 11/28/9 31/58/9 26/57/9
f 12/8/10 4/7/10 24/39/10 32/38/10
f 5/26/11 6/25/11 26/57/11 25/60/11
f 18/5/9 12/8/9 32/38/9 38/37/9
f 13/23/4 14/22/4 34/56/4 33/55/4
f 4/4/12 2/3/12 22/35/12 24/34/12
f 11/28/9 18/5/9 38/37/9 31/58/9
